<svg width="642" height="642" viewBox="0 0 642 642" fill="none" xmlns="http://www.w3.org/2000/svg">
<path fill-rule="evenodd" clip-rule="evenodd" d="M87 233.333C87 339.058 172.799 505.119 320.333 641.305C467.868 505.119 553.667 339.058 553.667 233.333C553.667 104.467 449.2 0 320.333 0C191.467 0 87 104.467 87 233.333ZM332.637 49.4691C328.061 49.4691 325.907 51.0836 325.369 55.6581C323.754 67.2288 321.869 78.5303 319.985 89.8319C316.27 112.117 312.755 134.401 309.267 156.513L309.254 156.593L309.157 157.211L309.088 157.646C308.592 160.788 308.098 163.926 307.603 167.06C305.314 181.052 303.094 195.112 300.873 209.172C298.652 223.231 296.431 237.291 294.143 251.283C289.298 282.495 284.184 313.708 279.07 344.92L279.069 344.922L279.069 344.923L279.069 344.925C278.195 350.236 277.337 355.547 276.48 360.858C273.905 376.805 271.33 392.752 268.302 408.698C267.763 412.735 267.494 415.426 270.993 417.309H339.366C341.789 415.695 342.866 413.542 342.866 410.582L357.402 319.362C359.69 305.235 361.978 291.041 364.266 276.846C366.554 262.652 368.842 248.458 371.13 234.331C372.722 224.599 374.281 214.834 375.841 205.059L375.842 205.053L375.847 205.025L375.863 204.924L375.867 204.899C378.785 186.62 381.708 168.307 384.859 150.107L384.875 150.003L384.879 149.98L384.879 149.977L384.88 149.974C389.718 119.073 394.557 88.1726 399.664 57.0035C400.741 51.0836 399.395 49.2 393.204 49.2L332.637 49.4691ZM298.458 437.545C290.145 437.545 282.099 439.16 274.59 442.121C257.158 449.389 245.358 461.77 241.604 480.881C240.799 484.649 240.799 488.687 241.604 492.724C241.688 493.235 241.773 493.773 241.858 494.312L241.871 494.396L241.872 494.398C242.05 495.535 242.229 496.672 242.408 497.569C248.576 519.641 267.349 533.906 293.094 536.598C296.045 536.867 298.995 536.867 301.945 536.598C329.836 533.637 349.145 517.487 353.436 492.455C353.972 488.688 353.704 485.459 353.436 482.23V482.227C352.363 473.344 348.608 464.731 342.708 458.002C331.445 445.082 315.354 437.815 298.458 437.545Z" fill="#197052"/>
</svg>
