<?xml version="1.0" encoding="utf-8"?>
<!-- Generator: Adobe Illustrator 25.3.1, SVG Export Plug-In . SVG Version: 6.00 Build 0)  -->
<svg version="1.1"
	 id="SVGRoot" inkscape:version="0.92.3 (2405546, 2018-03-11)" xmlns:cc="http://creativecommons.org/ns#" xmlns:dc="http://purl.org/dc/elements/1.1/" xmlns:inkscape="http://www.inkscape.org/namespaces/inkscape" xmlns:rdf="http://www.w3.org/1999/02/22-rdf-syntax-ns#" xmlns:sodipodi="http://sodipodi.sourceforge.net/DTD/sodipodi-0.dtd" xmlns:svg="http://www.w3.org/2000/svg"
	 xmlns="http://www.w3.org/2000/svg" xmlns:xlink="http://www.w3.org/1999/xlink" x="0px" y="0px" viewBox="0 0 256 256"
	 style="enable-background:new 0 0 256 256;" xml:space="preserve">

<sodipodi:namedview  bordercolor="#666666" borderopacity="1.0" id="base" inkscape:current-layer="layer1" inkscape:cx="236.14326" inkscape:cy="100.28757" inkscape:document-units="px" inkscape:grid-bbox="true" inkscape:pageopacity="0.0" inkscape:pageshadow="2" inkscape:window-height="1044" inkscape:window-maximized="1" inkscape:window-width="1920" inkscape:window-x="0" inkscape:window-y="36" inkscape:zoom="2" pagecolor="#ffffff" showgrid="false">
	</sodipodi:namedview>
<path id="path14_1_" fill="COLORPLACE" d="M72.1,194.8c1.8,1.3,8,4.3,9.9,5.5c4.7,2.8,4.7,2.8,8.5,6.3c3.2,2.6,4.9,6.6,4.5,10.8
	c-0.4,2.8-1,5.6-1.8,8.4c-0.9,3.2-1.8,6.5-1.4,9.9c0.8,6.5,5.1,10.2,10.8,12.3c13.3,5.1,27,7.8,41.2,5.8c7.8-1,14.3-4.7,18.4-11.8
	c4.4-7.5,8.5-15.4,12-23.3c1.1-2.3,1.9-4.7,2.4-7.2c0.6-2.1-0.2-4.3-2-5.5c-2.1-1.6-4.1-3.5-5.9-5.5c2.5-0.2,4.5-0.2,6.6-0.6
	c3.8-0.7,5-2.5,4-6.3c-2.2-8.9-0.2-16.6,7.1-22.5c1.9-1.5,3.7-3,5.6-4.4c3-2.1,5.8-4.6,8.2-7.3c3.4-3.9,4.9-9.2,4-14.2
	c-1.1-6.8-4.7-12.4-8.6-17.9c-4.8-6.7-10.1-13.2-13.8-20.7c-5.3-10.9-5.8-21.4,2.4-31.3c6.5-7.9,7.4-16.9,3.9-26.4
	c-5.7-15.2-14.4-28.6-25-40.8c-1.9-2.1-4.2-4-6.8-5.2c-1.8-1-3.9-1.6-5.9-1.5c-3.2,0-6.3,1.3-8.5,3.7c-2.1,2.2-4,4.8-5.1,7.7
	c-2.6,5.6-4.4,11.6-5.5,17.7c-0.7,3.6-2.8,4.8-5.9,5.6c-4.2,1.1-8.2,0-12.2-1.3c-5.4-1.7-10.4-4.3-15.9-5.8
	c-6.7-1.9-13.4-1.9-18.4,3.6c-7.1,7.8-10.1,17-8.1,27.6c1.3,6.4,4.8,11.7,8.5,16.9c3.4,4.8,7.1,9.4,10,14.6
	c5.1,9.4,4.8,22.4-3.6,31.1c-2,2.1-4,4.1-6.1,6.1c-5.8,5.4-11.9,10.4-17.2,16.4c-8.6,9.7-10.8,22.4-6.3,33.1
	c2.4,5.7,6.6,10.4,11.8,13.7L72.1,194.8z M80.2,192.8c-6.7-3.6-11.2-7.2-15.6-12.3c-2.5-3-3.8-6.7-3.9-10.6c-0.3-2.1-0.3-4.3,0-6.4
	c0.5-5.9,3.6-10.4,7.4-14.7c5.8-6.6,12.9-11.9,19.1-18.1c5.1-4.9,9.3-10.3,10.9-17.3c2.5-10.1,0.4-19.5-5.2-28
	c-3.6-5.5-7.5-10.7-11.2-16.1c-3.2-4.7-5.5-9.9-5.1-15.8c0.4-5.5,2.3-10.7,5.6-15c2.8-3.7,6.6-4.4,10.9-3.6
	c6.2,1.3,11.8,4.3,17.8,6.2c4.5,1.4,9,2.8,13.8,1.7c7-1.5,11.4-3.6,12.7-11.4c1-6.2,3-12.1,5.9-17.6c1.3-2.4,2.6-4.8,5.5-5.5
	c0.4-0.2,0.7-0.2,1.1-0.2c0.5,0,0.9,0.1,1.4,0.2c4,0.9,6.5,3.8,8.9,6.7c5.4,6.3,9.7,13.4,14,20.5c3.2,5.5,6.3,11.2,8,17.3
	c0.3,1.1,0.6,2.3,0.6,3.4l0,0c0.4,2.1,0.4,4.3,0,6.3c0,2.1-1,4-2.1,5.7c-2.5,4.3-5.9,7.8-7.7,12.5c-0.9,2.5-1.5,5-1.8,7.6
	c-0.2,1.5-0.2,3.1-0.1,4.6c0.1,0.4,0.1,0.8,0.2,1.2c0.9,9.7,5.3,17.8,10.7,25.6c4.1,5.9,8.9,11.6,12.4,17.9
	c2.4,4.1,4.3,8.5,2.8,13.4c-1.1,3.9-4.2,6.3-7.2,8.7c-4.4,3.6-9.3,6.6-13,11.2c-3.1,3.8-4.9,8.4-5.4,13.3c-0.3,1.6-0.3,3.2,0,4.8
	l0.1,0.7c0.3,3.9,0.3,3.8-3.8,4.1c-2.6,0.2-5.2,0.6-6.4,3.3c-1.2,2.7-0.1,4.9,1.6,7c1.3,1.7,2.8,3.1,4.4,4.4c2,1.3,2.2,2.9,1.3,5.1
	c-2.2,5.4-4.9,10.5-7.5,15.7c-1.5,2.9-3.4,5.6-4.8,8.5c-3.3,6.6-9.2,9-16,9.7c-11.6,1.1-22.8-1.2-33.8-4.7c-0.6-0.2-1.2-0.5-1.7-0.7
	c-7-3.2-8.2-5.6-6.3-13.1c0.9-3.7,2.1-7.4,2.5-11.2c0.6-6.7-2.1-11.8-6.6-16c-1.3-1.3-2.8-2.3-4.4-3.2L80.2,192.8z"/>
<path id="path132_1_" fill="COLORPLACE" d="M139.1,45.6c-1.7,0-2.5,0.6-2.7,2.3c-0.6,4.3-1.3,8.5-2,12.7c-1.6,9.6-3.1,19.2-4.6,28.7
	c-1.7,10.4-3.3,20.9-5,31.3c-1.8,11.6-3.7,23.2-5.6,34.8c-1.3,7.9-2.5,15.8-4,23.7c-0.2,1.5-0.3,2.5,1,3.2c4.7,0,9.3,0,13.9,0
	c3.9,0,7.7,0,11.5,0c0.9-0.6,1.3-1.4,1.3-2.5c1.8-11.3,3.6-22.6,5.4-33.9c1.7-10.5,3.4-21.1,5.1-31.6c1.7-10.4,3.3-20.9,5.1-31.3
	c1.8-11.5,3.6-23,5.5-34.6c0.4-2.2-0.1-2.9-2.4-2.9L139.1,45.6L139.1,45.6z"/>
<path id="path134_1_" fill="COLORPLACE" d="M126.5,189.7c-3.1,0-6.1,0.6-8.9,1.7c-6.5,2.7-10.9,7.3-12.3,14.4c-0.3,1.4-0.3,2.9,0,4.4
	c0.1,0.6,0.2,1.3,0.3,1.8c2.3,8.2,9.3,13.5,18.9,14.5c1.1,0.1,2.2,0.1,3.3,0c10.4-1.1,17.6-7.1,19.2-16.4c0.2-1.4,0.1-2.6,0-3.8
	c-0.4-3.3-1.8-6.5-4-9C138.8,192.5,132.8,189.8,126.5,189.7z"/>
</svg>
